<mxfile host="app.diagrams.net" modified="2024-06-05T19:24:11.011Z" agent="Mozilla/5.0 (Windows NT 10.0; Win64; x64; rv:127.0) Gecko/20100101 Firefox/127.0" version="24.2.1" etag="3LP8HniLmUnMRe2I39eg" type="github">
  <diagram name="Page-1" id="KvqXMYnFR7KSt4bkwBuw">
    <mxGraphModel>
      <root>
        <mxCell id="0" />
        <mxCell id="1" parent="0" />
      </root>
    </mxGraphModel>
  </diagram>
</mxfile>
